<?xml version="1.0" encoding="utf-8"?>
<!-- Generator: Adobe Illustrator 22.0.1, SVG Export Plug-In . SVG Version: 6.00 Build 0)  -->
<svg version="1.1" id="Layer_1" xmlns="http://www.w3.org/2000/svg" xmlns:xlink="http://www.w3.org/1999/xlink" x="0px" y="0px"
	 viewBox="0 0 16.2 18.7" style="enable-background:new 0 0 16.2 18.7;" xml:space="preserve">
<style type="text/css">
	.st0{fill:#6C757D;}
	.st1{enable-background:new    ;}
	.st2{fill:#AAAAAA;}
</style>
<title>rounded</title>
<g id="XMLID_1_">
	<g>
		<path class="st0" d="M8.1,0.1c0.4,0,0.8,0,1.2,0.1c4,0.6,7,4.2,6.8,8.2c-0.2,4.8-4,8.1-6.3,9.7c-0.5,0.3-1.1,0.5-1.7,0.5
			c-0.6,0-1.2-0.2-1.7-0.5C4,16.5,0.1,13,0.1,8.1C0.1,3.7,3.7,0.1,8.1,0.1z M11.1,8.1c0-1.7-1.3-3-3-3s-3,1.3-3,3s1.3,3,3,3
			S11.1,9.8,11.1,8.1z"/>
	</g>
	<g>
	</g>
</g>
<text transform="matrix(1 0 0 1 -3.8615 36.1239)" class="st2" style="font-family:'HelveticaNeue-Bold'; font-size:5px;">Created by Sophia Bai</text>
<text transform="matrix(1 0 0 1 -3.8615 41.1239)" class="st2" style="font-family:'HelveticaNeue-Bold'; font-size:5px;">from the Noun Project</text>
</svg>
